<svg version="1.1" xmlns="http://www.w3.org/2000/svg" xmlns:xlink="http://www.w3.org/1999/xlink"
        xmlns:svgjs="http://svgjs.dev/svgjs" matcher="0.9473295615592667" viewBox="0 0 395.52 40.22874168491219">
        <g viewBox="0 0 395.52 40.22874168491219" matcher="0.9473295615592667">
                <g matcher="0.9473295615592667">
                        <g matcher="0.9473295615592667">
                                <g matcher="0.9473295615592667"><svg viewBox="0 0 640 400"
                                                data-background-color="#ffffff" preserveAspectRatio="xMidYMid meet"
                                                height="400" width="640" xmlns="http://www.w3.org/2000/svg"
                                                xmlns:xlink="http://www.w3.org/1999/xlink">
                                                <g id="tight-bounds">
                                                        <svg viewBox="0 0 395.52 40.22874168491219"
                                                                height="40.22874168491219" width="395.52">
                                                                <g><svg viewBox="0 0 506.8838462574156 51.55567181266262"
                                                                                height="40.22874168491219"
                                                                                width="395.52">
                                                                                <g>
                                                                                        <rect width="3.3642139576839547"
                                                                                                height="44.76614050303555"
                                                                                                x="99.19278947856944"
                                                                                                y="3.3947656548135328"
                                                                                                fill="#e363aa"
                                                                                                opacity="1"
                                                                                                stroke-width="0"
                                                                                                stroke="transparent"
                                                                                                fill-opacity="1"
                                                                                                class="rect-r-0"
                                                                                                data-fill-palette-color="primary"
                                                                                                rx="1%" id="r-0"
                                                                                                data-palette-color="#e363aa">
                                                                                        </rect>
                                                                                </g>
                                                                                <g
                                                                                        transform="matrix(1,0,0,1,111.36384625741559,7.125277363399828)">
                                                                                        <svg viewBox="0 0 395.52 37.30511708586296"
                                                                                                height="37.30511708586296"
                                                                                                width="395.52">
                                                                                                <g
                                                                                                        id="textblocktransform">
                                                                                                        <svg viewBox="0 0 395.52 37.30511708586296"
                                                                                                                height="37.30511708586296"
                                                                                                                width="395.52"
                                                                                                                id="textblock">
                                                                                                                <g><svg viewBox="0 0 395.52 37.30511708586296"
                                                                                                                                height="37.30511708586296"
                                                                                                                                width="395.52">
                                                                                                                                <g
                                                                                                                                        transform="matrix(1,0,0,1,0,0)">
                                                                                                                                        <svg width="395.52"
                                                                                                                                                viewBox="0.699999988079071 -39.599998474121094 461.16998291015625 43.5"
                                                                                                                                                height="37.30511708586296"
                                                                                                                                                data-palette-color="#e363aa">
                                                                                                                                                <path d="M39.7 3.9Q29.1 3.9 22.73 3.25 16.35 2.6 11.75 0.48 7.15-1.65 4.05-5.9L4.05-5.9Q0.7-10.75 0.7-19.45L0.7-19.45Q0.7-29.6 5.73-34.6 10.75-39.6 19.8-39.6L19.8-39.6Q28.8-39.6 33.85-35.18 38.9-30.75 38.9-21.95L38.9-21.95Q38.9-18.15 37.68-14.83 36.45-11.5 33.45-8.7L33.45-8.7 33.7-8.2 39.7-8.2 39.7 3.9ZM19.8-8.2Q23.2-8.2 23.2-11.9L23.2-11.9 23.2-27Q23.2-30.7 19.8-30.7L19.8-30.7Q16.4-30.7 16.4-27L16.4-27 16.4-11.9Q16.4-8.2 19.8-8.2L19.8-8.2ZM72.1-8.2L74.3-8.2 74.3 0 60.6 0 60.6-3.9Q57 0.7 51.6 0.7L51.6 0.7Q47.45 0.7 45.37-1.9 43.3-4.5 43.3-9.05L43.3-9.05 43.3-19.6 41.1-19.6 41.1-27.8 54.8-27.8 54.8-11.4Q54.8-9.75 55.52-8.97 56.25-8.2 57.7-8.2L57.7-8.2Q59.15-8.2 59.87-8.97 60.6-9.75 60.6-11.4L60.6-11.4 60.6-19.6 57.9-19.6 57.9-27.8 72.1-27.8 72.1-8.2ZM90.6 0.7Q83.5 0.7 79.5-3.03 75.5-6.75 75.5-13.9L75.5-13.9Q75.5-21.05 79.5-24.78 83.5-28.5 90.6-28.5L90.6-28.5Q97.65-28.5 100.77-24.83 103.9-21.15 103.9-15.7L103.9-15.7 103.9-12.1 87.7-12.1 87.7-11.8Q87.7-9.95 88.8-9.08 89.9-8.2 92.45-8.2L92.45-8.2Q95.5-8.2 98.25-8.65 101-9.1 103.05-9.8L103.05-9.8 103.05-1.8Q101.3-0.85 97.92-0.08 94.55 0.7 90.6 0.7L90.6 0.7ZM87.7-17.6L93.5-17.6 93.5-18.2Q93.5-19.9 92.77-20.65 92.05-21.4 90.6-21.4L90.6-21.4Q89.15-21.4 88.42-20.63 87.7-19.85 87.7-18.2L87.7-18.2 87.7-17.6ZM136.09-8.2L138.29-8.2 138.29 0 124.59 0 124.59-3.9Q120.99 0.7 115.59 0.7L115.59 0.7Q111.44 0.7 109.37-1.9 107.29-4.5 107.29-9.05L107.29-9.05 107.29-19.6 105.09-19.6 105.09-27.8 118.79-27.8 118.79-11.4Q118.79-9.75 119.52-8.97 120.24-8.2 121.69-8.2L121.69-8.2Q123.14-8.2 123.87-8.97 124.59-9.75 124.59-11.4L124.59-11.4 124.59-19.6 121.89-19.6 121.89-27.8 136.09-27.8 136.09-8.2ZM154.59 0.7Q147.49 0.7 143.49-3.03 139.49-6.75 139.49-13.9L139.49-13.9Q139.49-21.05 143.49-24.78 147.49-28.5 154.59-28.5L154.59-28.5Q161.64-28.5 164.77-24.83 167.89-21.15 167.89-15.7L167.89-15.7 167.89-12.1 151.69-12.1 151.69-11.8Q151.69-9.95 152.79-9.08 153.89-8.2 156.44-8.2L156.44-8.2Q159.49-8.2 162.24-8.65 164.99-9.1 167.04-9.8L167.04-9.8 167.04-1.8Q165.29-0.85 161.92-0.08 158.54 0.7 154.59 0.7L154.59 0.7ZM151.69-17.6L157.49-17.6 157.49-18.2Q157.49-19.9 156.77-20.65 156.04-21.4 154.59-21.4L154.59-21.4Q153.14-21.4 152.42-20.63 151.69-19.85 151.69-18.2L151.69-18.2 151.69-17.6ZM203.19 0.7Q195.34 0.7 191.06-2.75 186.79-6.2 186.79-13.95L186.79-13.95 186.79-30.7 184.29-30.7 184.29-38.9 202.79-38.9 202.79-30.7 200.79-30.7 200.79-11.4Q200.79-9.75 201.51-8.97 202.24-8.2 203.69-8.2L203.69-8.2Q205.14-8.2 205.86-8.97 206.59-9.75 206.59-11.4L206.59-11.4 206.59-30.7 204.59-30.7 204.59-38.9 221.74-38.9 221.74-30.7 219.24-30.7 219.24-13.95Q219.24-6.2 215.09-2.75 210.94 0.7 203.19 0.7L203.19 0.7ZM254.43-8.2L256.63-8.2 256.63 0 240.83 0 240.83-8.2 242.93-8.2 242.93-16.4Q242.93-18.05 242.23-18.82 241.53-19.6 240.13-19.6L240.13-19.6Q237.13-19.6 237.13-16.4L237.13-16.4 237.13-8.2 239.23-8.2 239.23 0 223.43 0 223.43-8.2 225.63-8.2 225.63-19.6 223.43-19.6 223.43-27.8 237.13-27.8 237.13-23.9Q240.73-28.5 246.13-28.5L246.13-28.5Q250.28-28.5 252.36-25.9 254.43-23.3 254.43-18.75L254.43-18.75 254.43-8.2ZM268.08 0.7Q262.98 0.7 260.41-3.1 257.83-6.9 257.83-13.9L257.83-13.9Q257.83-20.9 260.41-24.7 262.98-28.5 268.08-28.5L268.08-28.5Q270.63-28.5 272.61-27.25 274.58-26 275.83-24.4L275.83-24.4 275.83-30.7 272.88-30.7 272.88-38.9 287.33-38.9 287.33-8.2 289.53-8.2 289.53 0 275.83 0 275.83-3.4Q274.58-1.8 272.61-0.55 270.63 0.7 268.08 0.7L268.08 0.7ZM272.93-8.2Q274.38-8.2 275.11-8.97 275.83-9.75 275.83-11.4L275.83-11.4 275.83-16.4Q275.83-18.05 275.11-18.82 274.38-19.6 272.93-19.6L272.93-19.6Q271.48-19.6 270.76-18.82 270.03-18.05 270.03-16.4L270.03-16.4 270.03-11.4Q270.03-9.75 270.76-8.97 271.48-8.2 272.93-8.2L272.93-8.2ZM306.03 0.7Q298.93 0.7 294.93-3.03 290.93-6.75 290.93-13.9L290.93-13.9Q290.93-21.05 294.93-24.78 298.93-28.5 306.03-28.5L306.03-28.5Q313.08-28.5 316.2-24.83 319.33-21.15 319.33-15.7L319.33-15.7 319.33-12.1 303.13-12.1 303.13-11.8Q303.13-9.95 304.23-9.08 305.33-8.2 307.88-8.2L307.88-8.2Q310.93-8.2 313.68-8.65 316.43-9.1 318.48-9.8L318.48-9.8 318.48-1.8Q316.73-0.85 313.35-0.08 309.98 0.7 306.03 0.7L306.03 0.7ZM303.13-17.6L308.93-17.6 308.93-18.2Q308.93-19.9 308.2-20.65 307.48-21.4 306.03-21.4L306.03-21.4Q304.58-21.4 303.85-20.63 303.13-19.85 303.13-18.2L303.13-18.2 303.13-17.6ZM342.18-28.5Q343.18-28.5 344.07-28.3 344.98-28.1 345.57-27.8L345.57-27.8 345.57-18.25Q343.53-19.1 341.18-19.1L341.18-19.1Q338.03-19.1 336.32-17.45 334.63-15.8 334.63-12.55L334.63-12.55 334.63-8.2 339.13-8.2 339.13 0 320.93 0 320.93-8.2 323.13-8.2 323.13-19.6 320.93-19.6 320.93-27.8 334.63-27.8 334.63-24.15Q336.03-26.25 337.82-27.38 339.63-28.5 342.18-28.5L342.18-28.5ZM347.17 0L347.17-8.2 349.37-8.2 349.37-19.6 347.17-19.6 347.17-27.8 349.47-27.8Q349.47-33.9 352.45-36.75 355.42-39.6 361.12-39.6L361.12-39.6Q363.87-39.6 366.05-39.2 368.22-38.8 369.22-38.3L369.22-38.3 369.22-30.45Q366.57-30.7 364.32-30.7L364.32-30.7Q362.37-30.7 361.62-30.05 360.87-29.4 360.87-27.8L360.87-27.8 364.77-27.8 364.77-19.6 360.87-19.6 360.87-8.2 364.77-8.2 364.77 0 347.17 0ZM382.27 0.05L366.37 0.05 366.37-8.2 368.57-8.2 368.57-30.7 366.37-30.7 366.37-38.9 380.07-38.9 380.07-8.2 382.27-8.2 382.27 0.05ZM398.77 0.7Q391.67 0.7 387.67-3.03 383.67-6.75 383.67-13.9L383.67-13.9Q383.67-21.05 387.67-24.78 391.67-28.5 398.77-28.5L398.77-28.5Q405.97-28.5 409.92-24.73 413.87-20.95 413.87-13.9L413.87-13.9Q413.87-6.75 409.87-3.03 405.87 0.7 398.77 0.7L398.77 0.7ZM398.77-8.2Q400.22-8.2 400.94-8.97 401.67-9.75 401.67-11.4L401.67-11.4 401.67-16.4Q401.67-18.05 400.94-18.82 400.22-19.6 398.77-19.6L398.77-19.6Q397.32-19.6 396.59-18.82 395.87-18.05 395.87-16.4L395.87-16.4 395.87-11.4Q395.87-9.75 396.59-8.97 397.32-8.2 398.77-8.2L398.77-8.2ZM435.27 0L423.77 0 417.17-19.6 415.07-19.6 415.07-27.8 430.52-27.8 430.52-19.6 428.42-19.6 430.22-11.8 430.72-11.8 434.37-27.8 443.57-27.8 447.22-11.8 447.72-11.8 449.47-19.6 447.37-19.6 447.37-27.8 461.87-27.8 461.87-19.6 459.77-19.6 453.42 0 441.27 0 438.52-13.9 438.02-13.9 435.27 0Z"
                                                                                                                                                        opacity="1"
                                                                                                                                                        transform="matrix(1,0,0,1,0,0)"
                                                                                                                                                        fill="#e363aa"
                                                                                                                                                        class="wordmark-text-0"
                                                                                                                                                        data-fill-palette-color="primary"
                                                                                                                                                        id="text-0">
                                                                                                                                                </path>
                                                                                                                                        </svg>
                                                                                                                                </g>
                                                                                                                        </svg>
                                                                                                                </g>
                                                                                                        </svg>
                                                                                                </g>
                                                                                        </svg>
                                                                                </g>
                                                                                <g><svg viewBox="0 0 90.38594665740726 51.55567181266262"
                                                                                                height="51.55567181266262"
                                                                                                width="90.38594665740726">
                                                                                                <g><svg xmlns="http://www.w3.org/2000/svg"
                                                                                                                xmlns:xlink="http://www.w3.org/1999/xlink"
                                                                                                                version="1.1"
                                                                                                                x="0"
                                                                                                                y="0"
                                                                                                                viewBox="5.626999855041504 24.259618759155273 88.6989974975586 50.59344482421875"
                                                                                                                enable-background="new 0 0 100 100"
                                                                                                                xml:space="preserve"
                                                                                                                height="51.55567181266262"
                                                                                                                width="90.38594665740726"
                                                                                                                class="icon-icon-0"
                                                                                                                data-fill-palette-color="accent"
                                                                                                                id="icon-0">
                                                                                                                <polygon points="14.398,59.605 16.884,54.25 11.529,51.763 12.352,54.013 5.627,56.463 6.856,59.824 13.576,57.357 "
                                                                                                                        fill="#e363aa"
                                                                                                                        data-fill-palette-color="accent">
                                                                                                                </polygon>
                                                                                                                <rect x="-0.34"
                                                                                                                        y="48.582"
                                                                                                                        transform="matrix(0.3435 0.9392 -0.9392 0.3435 63.7656 13.2291)"
                                                                                                                        width="45.521"
                                                                                                                        height="7.284"
                                                                                                                        fill="#e363aa"
                                                                                                                        data-fill-palette-color="accent">
                                                                                                                </rect>
                                                                                                                <rect x="36.156"
                                                                                                                        y="26.774"
                                                                                                                        width="7.283"
                                                                                                                        height="45.518"
                                                                                                                        fill="#e363aa"
                                                                                                                        data-fill-palette-color="accent">
                                                                                                                </rect>
                                                                                                                <rect x="57.399"
                                                                                                                        y="26.774"
                                                                                                                        width="7.283"
                                                                                                                        height="45.519"
                                                                                                                        fill="#e363aa"
                                                                                                                        data-fill-palette-color="accent">
                                                                                                                </rect>
                                                                                                                <rect x="46.778"
                                                                                                                        y="26.774"
                                                                                                                        width="7.284"
                                                                                                                        height="45.519"
                                                                                                                        fill="#e363aa"
                                                                                                                        data-fill-palette-color="accent">
                                                                                                                </rect>
                                                                                                                <polygon points="91.84,45.798 94.326,40.443 88.973,37.956 89.795,40.206 83.07,42.655 84.299,46.017 91.018,43.551 "
                                                                                                                        fill="#e363aa"
                                                                                                                        data-fill-palette-color="accent">
                                                                                                                </polygon>
                                                                                                                <rect x="55.438"
                                                                                                                        y="43.25"
                                                                                                                        transform="matrix(-0.3435 -0.9392 0.9392 -0.3435 61.022 136.4384)"
                                                                                                                        width="45.521"
                                                                                                                        height="7.283"
                                                                                                                        fill="#e363aa"
                                                                                                                        data-fill-palette-color="accent">
                                                                                                                </rect>
                                                                                                        </svg></g>
                                                                                        </svg></g>
                                                                        </svg></g>
                                                                <defs></defs>
                                                        </svg>
                                                        <rect width="395.52" height="40.22874168491219" fill="none"
                                                                stroke="none" visibility="hidden"></rect>
                                                </g>
                                        </svg></g>
                        </g>
                </g>
        </g>
        <rect width="320.6030760763209" height="41.10907304916827" x="204.14689334637967" y="180.44547303082192"
                rx="2.5" ry="2.5" fill="transparent" class="logo-element-hover-target"></rect>
        <rect width="82.5278406311154" height="52.22873731042077" x="117.24001651174171" y="174.88564090019565" rx="2.5"
                ry="2.5" fill="transparent" class="logo-element-hover-target"></rect>
</svg>